<?xml version="1.0" standalone="no"?>
<!DOCTYPE svg PUBLIC "-//W3C//DTD SVG 20010904//EN"
 "http://www.w3.org/TR/2001/REC-SVG-20010904/DTD/svg10.dtd">
<svg version="1.0" xmlns="http://www.w3.org/2000/svg"
 width="500.000000pt" height="500.000000pt" viewBox="0 0 500.000000 500.000000"
 preserveAspectRatio="xMidYMid meet">
<metadata>
Created by potrace 1.11, written by Peter Selinger 2001-2013
</metadata>
<g transform="translate(0.000000,500.000000) scale(0.100000,-0.100000)"
fill="#000000" stroke="none">
<path d="M2078 4710 c-103 -9 -93 118 -93 -1179 l0 -1139 -47 24 c-255 129
-580 153 -861 63 -296 -95 -560 -335 -681 -620 -39 -92 -69 -199 -81 -289 -9
-61 -8 -236 0 -290 3 -19 8 -49 10 -66 3 -17 11 -50 19 -72 9 -23 13 -42 11
-42 -8 0 46 -125 85 -198 126 -234 343 -422 588 -512 319 -116 646 -95 945 62
16 8 18 6 14 -21 -8 -51 10 -98 41 -108 21 -7 856 -11 944 -4 10 0 25 12 34
26 15 23 16 126 16 1155 -1 621 0 1130 2 1130 2 0 38 -16 80 -35 73 -33 210
-76 286 -90 70 -13 299 -12 372 1 439 81 787 391 898 799 30 109 31 111 36
265 5 128 -4 211 -39 345 -43 162 -168 363 -307 493 -132 122 -335 234 -487
268 -131 28 -179 33 -318 29 -188 -4 -313 -33 -459 -106 -33 -16 -60 -29 -62
-29 -1 0 -2 20 -2 44 0 56 -16 85 -50 92 -36 7 -822 10 -894 4z m841 -206 c0
-58 2 -108 5 -111 3 -3 34 13 69 36 123 80 292 149 408 166 101 16 283 13 376
-6 489 -100 829 -515 818 -1000 -3 -138 -7 -163 -36 -264 -48 -161 -135 -309
-251 -425 -67 -66 -186 -160 -204 -160 -4 0 -15 -6 -23 -14 -27 -22 -182 -84
-256 -101 -179 -42 -362 -38 -528 10 -110 32 -172 60 -285 128 l-92 56 0 -77
c0 -42 0 -582 -1 -1199 0 -871 -3 -1123 -12 -1124 -14 -1 -799 -1 -809 0 -5 1
-8 25 -8 54 l1 52 77 65 c193 164 324 397 372 661 30 165 5 408 -60 574 -63
164 -209 361 -341 462 l-49 37 0 1143 0 1143 415 0 415 0 -1 -106z m-1299
-2088 c66 -9 227 -67 300 -108 l65 -36 0 -848 0 -847 -71 -37 c-93 -50 -229
-95 -335 -110 -81 -12 -270 -10 -329 4 -14 3 -38 8 -55 12 -98 19 -242 83
-347 154 -195 131 -353 356 -410 585 -32 130 -32 363 1 485 113 423 473 723
911 759 70 6 163 1 270 -13z m545 -291 c174 -168 289 -454 284 -709 -5 -286
-122 -546 -332 -735 l-27 -24 0 768 0 768 27 -24 c15 -13 36 -33 48 -44z"/>
</g>
</svg>
